HIERARCHY
ROOT Hips
{
	OFFSET -0.001795 -0.223333 0.028219
	CHANNELS 6 Xposition Yposition Zposition Zrotation Yrotation Xrotation 
	JOINT LeftUpLeg
	{
		OFFSET 0.069520 -0.091406 -0.006815
		CHANNELS 3 Zrotation Yrotation Xrotation
		JOINT LeftLeg
		{
			OFFSET 0.034277 -0.375199 -0.004496
			CHANNELS 3 Zrotation Yrotation Xrotation
			JOINT LeftFoot
			{
				OFFSET -0.013596 -0.397961 -0.043693
				CHANNELS 3 Zrotation Yrotation Xrotation
				JOINT LeftToe
				{
					OFFSET 0.026358 -0.055791 0.119288
					CHANNELS 3 Zrotation Yrotation Xrotation
					End Site
					{
						OFFSET 0.000000 0.000000 0.000000
					}
				}
			}
		}
	}
	JOINT RightUpLeg
	{
		OFFSET -0.067670 -0.090522 -0.004320
		CHANNELS 3 Zrotation Yrotation Xrotation
		JOINT RightLeg
		{
			OFFSET -0.038290 -0.382569 -0.008850
			CHANNELS 3 Zrotation Yrotation Xrotation
			JOINT RightFoot
			{
				OFFSET 0.015774 -0.398415 -0.042312
				CHANNELS 3 Zrotation Yrotation Xrotation
				JOINT RightToe
				{
					OFFSET -0.025372 -0.048144 0.123348
					CHANNELS 3 Zrotation Yrotation Xrotation
					End Site
					{
						OFFSET 0.000000 0.000000 0.000000
					}
				}
			}
		}
	}
	JOINT Spine
	{
		OFFSET -0.002533 0.108963 -0.026696
		CHANNELS 3 Zrotation Yrotation Xrotation
		JOINT Spine1
		{
			OFFSET 0.005487 0.135180 0.001092
			CHANNELS 3 Zrotation Yrotation Xrotation
			JOINT Spine2
			{
				OFFSET 0.001457 0.052922 0.025425
				CHANNELS 3 Zrotation Yrotation Xrotation
				JOINT Neck
				{
					OFFSET -0.002778 0.213870 -0.042857
					CHANNELS 3 Zrotation Yrotation Xrotation
					JOINT Head
					{
						OFFSET 0.005152 0.064970 0.051349
						CHANNELS 3 Zrotation Yrotation Xrotation
						End Site
						{
							OFFSET 0.000000 0.000000 0.000000
						}
					}
				}
				JOINT LeftShoulder
				{
					OFFSET 0.078845 0.121749 -0.034090
					CHANNELS 3 Zrotation Yrotation Xrotation
					JOINT LeftArm
					{
						OFFSET 0.090977 0.030469 -0.008868
						CHANNELS 3 Zrotation Yrotation Xrotation
						JOINT LeftForeArm
						{
							OFFSET 0.259612 -0.012772 -0.027456
							CHANNELS 3 Zrotation Yrotation Xrotation
							JOINT LeftHand
							{
								OFFSET 0.249234 0.008986 -0.001171
								CHANNELS 3 Zrotation Yrotation Xrotation
								End Site
								{
									OFFSET 0.000000 0.000000 0.000000
								}
							}
						}
					}
				}
				JOINT RightShoulder
				{
					OFFSET -0.081759 0.118833 -0.038615
					CHANNELS 3 Zrotation Yrotation Xrotation
					JOINT RightArm
					{
						OFFSET -0.096012 0.032551 -0.009143
						CHANNELS 3 Zrotation Yrotation Xrotation
						JOINT RightForeArm
						{
							OFFSET -0.253742 -0.013329 -0.021401
							CHANNELS 3 Zrotation Yrotation Xrotation
							JOINT RightHand
							{
								OFFSET -0.255298 0.007772 -0.005559
								CHANNELS 3 Zrotation Yrotation Xrotation
								End Site
								{
									OFFSET 0.000000 0.000000 0.000000
								}
							}
						}
					}
				}
			}
		}
	}
}
MOTION
Frames: 6
Frame Time: 0.050000
0.000000 0.955182 0.000000 -5.710371 -13.605762 0.142882 9.835339 0.251723 -4.147333 -5.528888 1.164876 9.972363 6.114926 13.172078 6.766254 0.000000 0.000000 0.000000 -6.210853 0.980195 -12.095271 10.709055 -1.177573 25.827866 -4.386836 -12.918602 6.181880 0.000000 0.000000 0.000000 -0.419751 -0.270245 9.203487 -4.431312 1.432651 -19.724406 -0.819200 5.467398 26.873191 9.913954 -5.542435 -20.192745 0.000000 0.000000 0.000000 -1.249658 -17.293065 6.269997 -49.651184 -37.225571 8.347039 32.614672 -63.596104 -15.111481 0.000000 0.000000 0.000000 11.745437 8.093468 2.661858 63.580232 24.515127 4.761982 57.210713 73.413129 49.182530 0.000000 0.000000 0.000000 
-0.026941 0.953583 0.012469 -6.601095 -12.753708 0.842309 12.314829 0.388861 -3.820354 -5.108084 1.029108 9.925841 5.346067 11.733311 5.290635 0.000000 0.000000 0.000000 -9.490399 0.877437 -12.926214 8.387971 -0.653970 24.072076 -2.449473 -10.401711 10.216194 0.000000 0.000000 0.000000 0.298342 -0.268420 6.497843 -4.235974 1.408571 -18.071010 -0.114408 5.156519 26.801294 7.358511 -4.195958 -17.445467 0.000000 0.000000 0.000000 -0.371035 -16.568783 5.871601 -52.736417 -38.145919 9.713748 38.920125 -69.274583 -21.030154 0.000000 0.000000 0.000000 10.210297 7.577973 2.476510 63.702881 25.496759 5.421190 70.560695 74.743377 62.049921 0.000000 0.000000 0.000000 
-0.056212 0.950665 0.025132 -6.371332 -10.896086 0.631554 15.066729 0.556928 -4.732980 -5.922665 1.316334 13.083636 4.273586 9.713219 4.711353 0.000000 0.000000 0.000000 -13.589994 0.631475 -11.853838 6.570568 -0.437237 19.097489 -0.865979 -9.523754 16.911119 0.000000 0.000000 0.000000 0.640666 -0.286215 6.245704 -2.448572 0.920126 -18.335933 -1.184054 7.398722 27.248061 9.669847 -5.169959 -18.297968 0.000000 0.000000 0.000000 -1.651788 -17.440115 6.198331 -52.857938 -39.322616 9.747674 51.066043 -72.222602 -32.409373 0.000000 0.000000 0.000000 10.540478 6.353692 2.437396 60.733708 27.365207 6.215015 76.565773 78.946161 73.336812 0.000000 0.000000 0.000000 
-0.088541 0.944045 0.037725 -6.534786 -9.854133 1.132940 16.993543 0.607780 -4.336299 -5.472727 1.183085 13.665381 4.103281 9.262435 3.508897 0.000000 0.000000 0.000000 -16.542847 0.554247 -10.274914 4.286066 -0.150983 12.660289 0.441702 -8.142195 19.749427 0.000000 0.000000 0.000000 2.862178 -0.295727 3.971909 -4.148495 1.449799 -18.439905 -1.130307 7.128884 28.425198 8.949795 -4.779569 -17.686622 0.000000 0.000000 0.000000 -1.102393 -16.250267 5.702305 -55.749368 -40.868207 11.305322 59.306428 -73.415297 -39.455768 0.000000 0.000000 0.000000 9.966474 5.427970 2.079136 61.309058 29.583200 7.535836 78.623188 80.585645 77.360059 0.000000 0.000000 0.000000 
-0.125517 0.936981 0.049566 -6.283253 -9.879415 1.090672 19.084626 0.712332 -3.572814 -4.914504 1.041568 13.866076 3.503780 7.941689 2.607626 0.000000 0.000000 0.000000 -19.652204 0.483098 -10.816665 1.558930 0.237973 9.881219 3.349458 -5.439358 25.102983 0.000000 0.000000 0.000000 3.671582 -0.242377 2.757180 -3.517942 1.257662 -18.089381 -1.163152 9.350860 28.089123 10.063396 -5.421333 -16.655001 0.000000 0.000000 0.000000 -1.947972 -16.356887 5.712783 -55.794233 -40.169750 10.540757 69.672191 -73.665648 -49.037915 0.000000 0.000000 0.000000 11.285742 5.700311 2.539099 58.648696 32.331446 8.675537 74.106644 83.477196 76.615989 0.000000 0.000000 0.000000 
-0.167785 0.928816 0.059412 -5.563384 -9.554834 1.275656 21.394868 0.772811 -2.794327 -5.275504 1.084927 13.060063 3.537025 8.253600 3.981985 0.000000 0.000000 0.000000 -21.139551 0.433465 -11.046293 -0.449006 0.502601 8.589009 4.801966 -3.949585 27.051609 0.000000 0.000000 0.000000 4.490865 -0.168206 1.513665 -4.429698 1.549231 -17.602215 -0.917192 10.471982 27.522638 11.198516 -5.941530 -16.983867 0.000000 0.000000 0.000000 -2.944411 -16.585860 5.782440 -55.565137 -39.556248 10.017618 78.189736 -73.242127 -56.693498 0.000000 0.000000 0.000000 10.813678 7.113653 3.337730 57.418949 35.040715 10.091622 54.338686 86.188796 60.383146 0.000000 0.000000 0.000000 
